<svg width="108" height="29" viewBox="0 0 108 29" fill="none" xmlns="http://www.w3.org/2000/svg">
<g clip-path="url(#clip0_16_183)">
<path d="M42.2569 11.167C40.8922 11.167 40.2172 12.2302 39.9074 12.9161C39.7344 13.299 39.686 13.6018 39.5456 13.6018C39.3478 13.6018 39.4895 13.3387 39.3276 12.7551C39.1147 11.9872 38.4729 11.167 37.1092 11.167C35.6755 11.167 35.0617 12.3663 34.7706 13.0254C34.5715 13.4759 34.5713 13.6018 34.4182 13.6018C34.1964 13.6018 34.3802 13.2439 34.4799 12.8232C34.6765 11.9948 34.5271 11.3618 34.5271 11.3618H32.2544V19.8232H35.3565C35.3565 19.8232 35.3565 16.287 35.3565 15.6133C35.3565 14.7829 35.7074 13.7293 36.3087 13.7293C37.0035 13.7293 37.1426 14.2575 37.1426 15.2359C37.1426 16.1229 37.1426 19.8251 37.1426 19.8251H40.2572C40.2572 19.8251 40.2572 16.2674 40.2572 15.6133C40.2572 14.8742 40.5618 13.7293 41.2139 13.7293C41.9184 13.7293 42.0431 14.4715 42.0431 15.2359C42.0431 16.0003 42.0431 19.8232 42.0431 19.8232H45.1017C45.1017 19.8232 45.1017 16.4706 45.1017 14.8474C45.1017 12.6392 44.3156 11.167 42.2569 11.167Z" fill="#100F0D"/>
<path d="M94.9112 11.167C93.5466 11.167 92.8714 12.2302 92.5616 12.9161C92.3886 13.299 92.3403 13.6018 92.1998 13.6018C92.002 13.6018 92.1344 13.2675 91.982 12.7551C91.7547 11.9912 91.1891 11.167 89.7635 11.167C88.3298 11.167 87.7159 12.3663 87.4249 13.0254C87.2258 13.4759 87.2256 13.6018 87.0725 13.6018C86.8507 13.6018 87.0344 13.2439 87.1343 12.8232C87.3309 11.9948 87.1814 11.3618 87.1814 11.3618H84.9086V19.8232H88.0108C88.0108 19.8232 88.0108 16.287 88.0108 15.6133C88.0108 14.7829 88.3617 13.7293 88.963 13.7293C89.6577 13.7293 89.7968 14.2575 89.7968 15.2359C89.7968 16.1229 89.7968 19.8251 89.7968 19.8251H92.9114C92.9114 19.8251 92.9114 16.2674 92.9114 15.6133C92.9114 14.8742 93.2161 13.7293 93.8682 13.7293C94.5727 13.7293 94.6974 14.4715 94.6974 15.2359C94.6974 16.0003 94.6974 19.8232 94.6974 19.8232H97.756C97.756 19.8232 97.756 16.4706 97.756 14.8474C97.756 12.6392 96.9699 11.167 94.9112 11.167Z" fill="#100F0D"/>
<path d="M49.6433 17.8457C48.9015 18.0153 48.517 17.7891 48.517 17.3023C48.517 16.6354 49.2136 16.3683 50.2081 16.3683C50.6464 16.3683 51.0586 16.4059 51.0586 16.4059C51.0586 16.6913 50.4328 17.6654 49.6433 17.8457ZM50.3986 11.1689C48.0223 11.1689 46.3172 12.034 46.3172 12.034V14.5766C46.3172 14.5766 48.2002 13.5047 49.7277 13.5047C50.9469 13.5047 51.0968 14.1557 51.0412 14.6962C51.0412 14.6962 50.6897 14.604 49.6165 14.604C47.0882 14.604 45.8118 15.7417 45.8118 17.5662C45.8118 19.2967 47.2463 20.0201 48.4548 20.0201C50.2183 20.0201 50.9935 18.8467 51.2318 18.29C51.3971 17.9038 51.4272 17.6435 51.5757 17.6435C51.7449 17.6435 51.6879 17.8302 51.6798 18.2146C51.6654 18.8877 51.6974 19.3966 51.8052 19.8252H54.1434V15.661C54.1434 13.0611 53.2143 11.1689 50.3986 11.1689Z" fill="#100F0D"/>
<path d="M59.2533 19.8251H62.3556V8.80029H59.2533V19.8251Z" fill="#100F0D"/>
<path d="M65.7701 15.5944C65.7701 14.8336 66.4839 14.1414 67.7945 14.1414C69.2225 14.1414 70.371 14.8222 70.6286 14.9768V12.034C70.6286 12.034 69.7212 11.1689 67.491 11.1689C65.14 11.1689 63.1823 12.5311 63.1823 15.4628C63.1823 18.3944 64.959 20.0201 67.4847 20.0201C69.4576 20.0201 70.6336 18.9468 70.6336 18.9468V16.1516C70.2616 16.3578 69.2248 17.0701 67.8087 17.0701C66.3092 17.0701 65.7701 16.3872 65.7701 15.5944Z" fill="#100F0D"/>
<path d="M76.9128 11.1689C75.1169 11.1689 74.4339 12.8539 74.296 13.1466C74.158 13.4391 74.0898 13.6074 73.9769 13.6038C73.7809 13.5974 73.9175 13.2446 73.9939 13.0161C74.1384 12.5845 74.4444 11.4521 74.4444 10.0603C74.4444 9.11624 74.3155 8.80029 74.3155 8.80029H71.6375V19.8252H74.7397C74.7397 19.8252 74.7397 16.301 74.7397 15.6154C74.7397 14.9295 75.0161 13.7312 75.7976 13.7312C76.4449 13.7312 76.6476 14.2061 76.6476 15.1624C76.6476 16.1186 76.6476 19.8252 76.6476 19.8252H79.7498C79.7498 19.8252 79.7498 17.2464 79.7498 15.3464C79.7498 13.1744 79.3861 11.1689 76.9128 11.1689Z" fill="#100F0D"/>
<path d="M80.7579 11.3735V19.8253H83.8602V11.3735C83.8602 11.3735 83.3388 11.6755 82.3123 11.6755C81.2859 11.6755 80.7579 11.3735 80.7579 11.3735Z" fill="#100F0D"/>
<path d="M82.3 8.71484C81.2512 8.71484 80.401 9.26426 80.401 9.94202C80.401 10.6197 81.2512 11.1691 82.3 11.1691C83.3487 11.1691 84.199 10.6197 84.199 9.94202C84.199 9.26426 83.3487 8.71484 82.3 8.71484Z" fill="#100F0D"/>
<path d="M55.1473 11.3735V19.8253H58.2495V11.3735C58.2495 11.3735 57.728 11.6755 56.7015 11.6755C55.6752 11.6755 55.1473 11.3735 55.1473 11.3735Z" fill="#100F0D"/>
<path d="M56.6892 8.71484C55.6405 8.71484 54.7903 9.26426 54.7903 9.94202C54.7903 10.6197 55.6405 11.1691 56.6892 11.1691C57.738 11.1691 58.5882 10.6197 58.5882 9.94202C58.5882 9.26426 57.738 8.71484 56.6892 8.71484Z" fill="#100F0D"/>
<path d="M103.068 18.0068C102.356 18.0068 101.833 17.1134 101.833 15.8687C101.833 14.6599 102.371 13.7311 103.043 13.7311C103.907 13.7311 104.275 14.5149 104.275 15.8687C104.275 17.277 103.935 18.0068 103.068 18.0068ZM103.919 11.167C102.325 11.167 101.594 12.351 101.276 13.0254C101.066 13.4711 101.077 13.6018 100.924 13.6018C100.702 13.6018 100.886 13.2439 100.986 12.8232C101.182 11.9948 101.033 11.3618 101.033 11.3618H98.7599V22.1601H101.862C101.862 22.1601 101.862 20.3931 101.862 18.7365C102.229 19.3531 102.909 20.0119 103.957 20.0119C106.201 20.0119 107.33 18.1327 107.33 15.5937C107.33 12.7159 105.978 11.167 103.919 11.167Z" fill="#100F0D"/>
<path d="M21.2949 13.723C21.5036 13.6984 21.7034 13.6972 21.8871 13.723C21.9934 13.4817 22.0117 13.0655 21.916 12.6125C21.7739 11.939 21.5816 11.5314 21.1841 11.5948C20.7867 11.6583 20.772 12.1462 20.9141 12.8197C20.994 13.1985 21.1364 13.5223 21.2949 13.723Z" fill="#231F20"/>
<path d="M17.8828 14.2561C18.1672 14.3797 18.3419 14.4616 18.4103 14.39C18.4543 14.3454 18.4412 14.2602 18.3733 14.1504C18.233 13.9235 17.9442 13.6935 17.6379 13.5642C17.0115 13.2973 16.2644 13.3861 15.6881 13.7961C15.4979 13.9341 15.3175 14.1253 15.3433 14.2414C15.3517 14.279 15.3802 14.3073 15.4469 14.3165C15.6038 14.3343 16.152 14.0598 16.7834 14.0216C17.2291 13.9946 17.5984 14.1326 17.8828 14.2561Z" fill="#231F20"/>
<path d="M17.3108 14.5789C16.9403 14.6368 16.736 14.7578 16.6049 14.8702C16.493 14.967 16.4238 15.0741 16.4244 15.1494C16.4246 15.1852 16.4404 15.2059 16.4527 15.2163C16.4697 15.2309 16.4896 15.2391 16.5136 15.2391C16.5973 15.2391 16.7847 15.1646 16.7847 15.1646C17.3001 14.982 17.6401 15.0042 17.9771 15.0422C18.1633 15.0628 18.2513 15.0743 18.2921 15.0111C18.3042 14.9929 18.3188 14.9537 18.2816 14.8938C18.1948 14.7545 17.8208 14.519 17.3107 14.5789" fill="#231F20"/>
<path d="M20.1428 15.7653C20.3942 15.8877 20.6711 15.8396 20.7613 15.658C20.8514 15.4765 20.7206 15.2301 20.469 15.1077C20.2176 14.9855 19.9407 15.0334 19.8505 15.215C19.7605 15.3966 19.8913 15.6429 20.1428 15.7653Z" fill="#231F20"/>
<path d="M21.7596 14.3667C21.5553 14.3633 21.3859 14.5854 21.3811 14.8628C21.3763 15.1403 21.5381 15.3678 21.7424 15.3713C21.9467 15.3748 22.1162 15.1526 22.1209 14.8753C22.1257 14.5978 21.9639 14.3701 21.7596 14.3667Z" fill="#231F20"/>
<path d="M8.03659 19.3686C7.98577 19.3055 7.90227 19.3247 7.82142 19.3434C7.76495 19.3565 7.70096 19.3711 7.63082 19.37C7.48055 19.367 7.35331 19.3036 7.28184 19.1948C7.18877 19.0533 7.19415 18.8423 7.29693 18.6009C7.31075 18.5681 7.32709 18.532 7.34486 18.4926C7.50867 18.1286 7.78294 17.5193 7.47504 16.9388C7.24328 16.5019 6.86532 16.2298 6.41089 16.1727C5.97463 16.1179 5.52548 16.2781 5.23899 16.591C4.78701 17.0847 4.71637 17.7566 4.80378 17.994C4.83583 18.0809 4.88591 18.1049 4.92234 18.1099C4.99921 18.12 5.11293 18.0647 5.18417 17.8749C5.18926 17.8613 5.19604 17.8401 5.20454 17.8133C5.23632 17.713 5.29542 17.5262 5.39222 17.3764C5.50894 17.1959 5.69074 17.0716 5.90413 17.0263C6.12153 16.9802 6.34371 17.0213 6.5297 17.1419C6.84637 17.347 6.96828 17.7311 6.8331 18.0976C6.76324 18.2872 6.6497 18.6496 6.67478 18.9475C6.72537 19.5502 7.09981 19.7924 7.43625 19.8181C7.76336 19.8302 7.99196 19.6485 8.0498 19.5156C8.08393 19.437 8.05512 19.3892 8.0366 19.3686" fill="#231F20"/>
<path d="M11.1462 8.29761C12.2131 7.07701 13.5264 6.01583 14.7029 5.41997C14.7436 5.39928 14.7867 5.4431 14.7647 5.48259C14.6712 5.65009 14.4914 6.00879 14.4344 6.28084C14.4255 6.32324 14.4721 6.35512 14.5082 6.33075C15.2401 5.83678 16.5134 5.30746 17.6302 5.23942C17.6782 5.23647 17.7014 5.29741 17.6632 5.3264C17.4933 5.45544 17.3076 5.63392 17.1719 5.81448C17.1488 5.8452 17.1706 5.88945 17.2092 5.88968C17.9934 5.89522 19.0989 6.16694 19.8195 6.5671C19.8682 6.59412 19.8335 6.68759 19.779 6.67523C18.6888 6.4279 16.9043 6.24018 15.0505 6.68784C13.3956 7.08754 12.1325 7.70454 11.2111 8.36809C11.1645 8.40171 11.1086 8.34082 11.1462 8.29762L11.1462 8.29761ZM16.4596 20.124C16.4597 20.1242 16.4599 20.1246 16.46 20.1246C16.4602 20.125 16.4603 20.1256 16.4606 20.1259C16.4603 20.1253 16.46 20.1246 16.4596 20.124ZM20.8592 20.6382C20.8908 20.625 20.9126 20.5893 20.9089 20.5538C20.9044 20.5102 20.8651 20.4784 20.821 20.4829C20.821 20.4829 18.5442 20.8165 16.3935 20.037C16.6278 19.2831 17.2507 19.5553 18.1922 19.6306C19.8894 19.7308 21.4103 19.4853 22.5345 19.1657C23.5086 18.8891 24.788 18.3433 25.7817 17.5667C26.1169 18.2958 26.2352 19.0979 26.2352 19.0979C26.2352 19.0979 26.4947 19.0521 26.7114 19.1841C26.9163 19.309 27.0666 19.5684 26.9639 20.2394C26.755 21.4929 26.2169 22.5102 25.3125 23.4462C24.7619 24.0329 24.0936 24.543 23.3289 24.914C22.9228 25.1252 22.4904 25.3079 22.0336 25.4555C18.6242 26.5581 15.1343 25.346 14.0093 22.7431C13.9196 22.5474 13.8437 22.3426 13.7838 22.1283C13.3044 20.413 13.7114 18.3552 14.9836 17.0598C14.9837 17.0597 14.9835 17.0591 14.9836 17.0591C15.062 16.9767 15.142 16.8795 15.142 16.7573C15.142 16.655 15.0764 16.5471 15.0195 16.4707C14.5744 15.8315 13.0327 14.7422 13.3421 12.6343C13.5643 11.12 14.9019 10.0535 16.149 10.1166C16.2544 10.1221 16.36 10.1284 16.4651 10.1346C17.0055 10.1663 17.477 10.235 17.9219 10.2533C18.6665 10.2852 19.3361 10.178 20.1291 9.5238C20.3967 9.30304 20.6111 9.11174 20.9741 9.05086C21.0123 9.04437 21.1071 9.01066 21.2968 9.01955C21.4904 9.02971 21.6747 9.0824 21.8403 9.19157C22.4762 9.61045 22.5662 10.625 22.5993 11.3672C22.618 11.7908 22.6698 12.8158 22.6875 13.11C22.7279 13.7828 22.9066 13.8777 23.2679 13.9955C23.4712 14.0618 23.6598 14.1112 23.9379 14.1884C24.7794 14.4224 25.2784 14.6598 25.5929 14.9646C25.7805 15.1551 25.8678 15.3576 25.8947 15.5507C25.9939 16.2675 25.3326 17.153 23.582 17.9576C21.6683 18.8369 19.3467 19.0596 17.7427 18.8828C17.6197 18.8693 17.1822 18.8202 17.1807 18.8199C15.8976 18.6488 15.1657 20.2906 15.9358 21.4154C16.4321 22.1403 17.7839 22.6122 19.1364 22.6124C22.2374 22.6127 24.621 21.3015 25.5076 20.1692C25.5342 20.1354 25.5368 20.1317 25.5785 20.0691C25.6222 20.004 25.5862 19.9681 25.5319 20.0049C24.8074 20.4957 21.5899 22.4441 18.1482 21.8579C18.1482 21.8579 17.7301 21.7898 17.3483 21.6428C17.045 21.526 16.41 21.2367 16.3329 20.5918C19.1103 21.4422 20.8592 20.6382 20.8592 20.6382V20.6382ZM5.60375 14.1028C4.63781 14.2888 3.78645 14.8308 3.26589 15.5795C2.95469 15.3226 2.37501 14.8251 2.27265 14.6313C1.44148 13.0688 3.1797 10.0307 4.39397 8.31494C7.39488 4.07485 12.0949 0.86543 14.2707 1.44777C14.6245 1.54689 15.7959 2.89167 15.7959 2.89167C15.7959 2.89167 13.621 4.08651 11.6041 5.75198C8.88643 7.82386 6.83356 10.8352 5.60375 14.1028ZM7.22689 21.2732C7.08068 21.2979 6.93156 21.3078 6.78115 21.3041C5.32779 21.2656 3.75788 19.97 3.60187 18.4337C3.42945 16.7355 4.30579 15.4286 5.85742 15.1187C6.04292 15.0817 6.2671 15.0603 6.50884 15.0728C7.3782 15.12 8.65934 15.7809 8.95202 17.6561C9.21126 19.3169 8.79953 21.0076 7.22689 21.2732V21.2732ZM26.9148 18.2662C26.9023 18.2226 26.8212 17.9291 26.7098 17.5754C26.5984 17.2215 26.483 16.9726 26.483 16.9726C26.93 16.3099 26.9379 15.7174 26.8785 15.3817C26.815 14.9657 26.6402 14.6112 26.2876 14.2448C25.935 13.8783 25.2139 13.503 24.2005 13.2212C24.0846 13.189 23.7024 13.0852 23.6688 13.0751C23.6662 13.0534 23.6408 11.834 23.6178 11.3105C23.601 10.9321 23.5682 10.3413 23.3831 9.75942C23.1624 8.9718 22.778 8.28259 22.2982 7.84165C23.6224 6.48266 24.449 4.9855 24.447 3.70113C24.4432 1.23117 21.3795 0.483864 17.6041 2.03173C17.6001 2.03334 16.8099 2.36513 16.8042 2.3679C16.8006 2.36455 15.358 0.963048 15.3363 0.944334C11.0317 -2.77314 -2.42682 12.0385 1.87614 15.6359L2.81651 16.4247C2.57259 17.0503 2.47673 17.7671 2.55503 18.538C2.65553 19.528 3.17131 20.4771 4.00732 21.2102C4.80093 21.9065 5.84434 22.3471 6.8569 22.3463C8.53136 26.1669 12.3573 28.5107 16.8432 28.6426C21.6552 28.7842 25.6946 26.5485 27.3872 22.5326C27.4979 22.2508 27.9678 20.9808 27.9678 19.8598C27.9678 18.7331 27.3244 18.2662 26.9148 18.2662Z" fill="#231F20"/>
</g>
<defs>
<clipPath id="clip0_16_183">
<rect width="107" height="29" fill="white" transform="translate(0.684021)"/>
</clipPath>
</defs>
</svg>
